<?xml version="1.0" encoding="UTF-8"?>
<svg xmlns="http://www.w3.org/2000/svg" xmlns:xlink="http://www.w3.org/1999/xlink"
     width="2000" height="2000" viewBox="-1000.0 -1000.0 2000 2000">
<defs>
<g id="d0">
<g>
<symbol overflow="visible" id="embed--1764741883919145910-glyph0-0">
<path style="stroke:none;" d=""/>
</symbol>
<symbol overflow="visible" id="embed--1764741883919145910-glyph0-1">
<path style="stroke:none;" d="M 4.71875 -6.703125 C 4.609375 -6.953125 4.5 -6.953125 4.328125 -6.953125 C 4.046875 -6.953125 4 -6.875 3.9375 -6.703125 L 1.46875 -0.703125 C 1.40625 -0.546875 1.375 -0.46875 0.625 -0.46875 L 0.40625 -0.46875 L 0.40625 0 C 0.78125 -0.015625 1.265625 -0.03125 1.578125 -0.03125 C 1.96875 -0.03125 2.515625 -0.03125 2.890625 0 L 2.890625 -0.46875 C 2.875 -0.46875 2 -0.46875 2 -0.59375 C 2 -0.609375 2.03125 -0.703125 2.046875 -0.71875 L 2.546875 -1.921875 L 5.21875 -1.921875 L 5.8125 -0.46875 L 4.859375 -0.46875 L 4.859375 0 C 5.25 -0.03125 6.1875 -0.03125 6.625 -0.03125 C 7.015625 -0.03125 7.890625 -0.03125 8.25 0 L 8.25 -0.46875 L 7.28125 -0.46875 Z M 3.875 -5.15625 L 5.015625 -2.390625 L 2.734375 -2.390625 Z M 3.875 -5.15625 "/>
</symbol>
<symbol overflow="visible" id="embed--1764741883919145910-glyph0-2">
<path style="stroke:none;" d="M 1.140625 -3.546875 L 1.140625 -0.46875 L 0.453125 -0.46875 L 0.453125 0 C 0.734375 -0.015625 1.328125 -0.03125 1.703125 -0.03125 C 2.09375 -0.03125 2.6875 -0.015625 2.953125 0 L 2.953125 -0.46875 L 2.265625 -0.46875 L 2.265625 -2.546875 C 2.265625 -3.640625 3.140625 -4.125 3.765625 -4.125 C 4.09375 -4.125 4.3125 -3.921875 4.3125 -3.15625 L 4.3125 -0.46875 L 3.625 -0.46875 L 3.625 0 C 3.90625 -0.015625 4.5 -0.03125 4.890625 -0.03125 C 5.28125 -0.03125 5.859375 -0.015625 6.140625 0 L 6.140625 -0.46875 L 5.453125 -0.46875 L 5.453125 -2.546875 C 5.453125 -3.640625 6.3125 -4.125 6.9375 -4.125 C 7.28125 -4.125 7.5 -3.921875 7.5 -3.15625 L 7.5 -0.46875 L 6.8125 -0.46875 L 6.8125 0 C 7.09375 -0.015625 7.6875 -0.03125 8.0625 -0.03125 C 8.453125 -0.03125 9.046875 -0.015625 9.328125 0 L 9.328125 -0.46875 L 8.640625 -0.46875 L 8.640625 -3.046875 C 8.640625 -4.078125 8.125 -4.484375 7.09375 -4.484375 C 6.1875 -4.484375 5.671875 -3.984375 5.40625 -3.53125 C 5.21875 -4.453125 4.296875 -4.484375 3.921875 -4.484375 C 3.046875 -4.484375 2.484375 -4.03125 2.15625 -3.40625 L 2.15625 -4.484375 L 0.453125 -4.40625 L 0.453125 -3.9375 C 1.0625 -3.9375 1.140625 -3.9375 1.140625 -3.546875 Z M 1.140625 -3.546875 "/>
</symbol>
<symbol overflow="visible" id="embed--1764741883919145910-glyph0-3">
<path style="stroke:none;" d="M 5.40625 -2.171875 C 5.40625 -3.515625 4.484375 -4.515625 2.859375 -4.515625 C 1.21875 -4.515625 0.3125 -3.5 0.3125 -2.171875 C 0.3125 -0.9375 1.203125 0.0625 2.859375 0.0625 C 4.53125 0.0625 5.40625 -0.953125 5.40625 -2.171875 Z M 2.859375 -0.34375 C 1.59375 -0.34375 1.59375 -1.421875 1.59375 -2.28125 C 1.59375 -2.734375 1.59375 -3.234375 1.765625 -3.578125 C 1.953125 -3.953125 2.375 -4.15625 2.859375 -4.15625 C 3.28125 -4.15625 3.703125 -4 3.921875 -3.65625 C 4.125 -3.3125 4.125 -2.765625 4.125 -2.28125 C 4.125 -1.421875 4.125 -0.34375 2.859375 -0.34375 Z M 2.859375 -0.34375 "/>
</symbol>
<symbol overflow="visible" id="embed--1764741883919145910-glyph0-4">
<path style="stroke:none;" d="M 4.359375 -0.71875 L 4.359375 0.0625 L 6.125 0 L 6.125 -0.46875 C 5.515625 -0.46875 5.4375 -0.46875 5.4375 -0.859375 L 5.4375 -4.484375 L 3.625 -4.40625 L 3.625 -3.9375 C 4.234375 -3.9375 4.3125 -3.9375 4.3125 -3.546875 L 4.3125 -1.640625 C 4.3125 -0.828125 3.796875 -0.296875 3.078125 -0.296875 C 2.296875 -0.296875 2.265625 -0.546875 2.265625 -1.09375 L 2.265625 -4.484375 L 0.453125 -4.40625 L 0.453125 -3.9375 C 1.0625 -3.9375 1.140625 -3.9375 1.140625 -3.546875 L 1.140625 -1.21875 C 1.140625 -0.15625 1.9375 0.0625 2.9375 0.0625 C 3.1875 0.0625 3.90625 0.0625 4.359375 -0.71875 Z M 4.359375 -0.71875 "/>
</symbol>
<symbol overflow="visible" id="embed--1764741883919145910-glyph0-5">
<path style="stroke:none;" d="M 2.03125 -3.359375 L 2.03125 -4.484375 L 0.375 -4.40625 L 0.375 -3.9375 C 0.984375 -3.9375 1.0625 -3.9375 1.0625 -3.546875 L 1.0625 -0.46875 L 0.375 -0.46875 L 0.375 0 C 0.71875 -0.015625 1.171875 -0.03125 1.625 -0.03125 C 2 -0.03125 2.640625 -0.03125 3 0 L 3 -0.46875 L 2.140625 -0.46875 L 2.140625 -2.21875 C 2.140625 -2.90625 2.375 -4.125 3.375 -4.125 C 3.375 -4.109375 3.1875 -3.953125 3.1875 -3.671875 C 3.1875 -3.265625 3.515625 -3.0625 3.796875 -3.0625 C 4.09375 -3.0625 4.40625 -3.265625 4.40625 -3.671875 C 4.40625 -4.203125 3.875 -4.484375 3.34375 -4.484375 C 2.65625 -4.484375 2.25 -3.984375 2.03125 -3.359375 Z M 2.03125 -3.359375 "/>
</symbol>
</g>
</g>
<g id="d1">
<g>
<symbol overflow="visible" id="embed-5762578709740549220-glyph0-0">
<path style="stroke:none;" d=""/>
</symbol>
<symbol overflow="visible" id="embed-5762578709740549220-glyph0-1">
<path style="stroke:none;" d="M 5.640625 -3.703125 L 2.46875 -3.703125 L 2.46875 -6.03125 C 2.46875 -6.390625 2.484375 -6.5 3.25 -6.5 L 3.484375 -6.5 L 3.484375 -6.8125 C 3.140625 -6.78125 2.40625 -6.78125 2.03125 -6.78125 C 1.640625 -6.78125 0.890625 -6.78125 0.546875 -6.8125 L 0.546875 -6.5 L 0.78125 -6.5 C 1.5625 -6.5 1.578125 -6.390625 1.578125 -6.03125 L 1.578125 -0.78125 C 1.578125 -0.421875 1.5625 -0.3125 0.78125 -0.3125 L 0.546875 -0.3125 L 0.546875 0 C 0.890625 -0.03125 1.640625 -0.03125 2.015625 -0.03125 C 2.390625 -0.03125 3.140625 -0.03125 3.484375 0 L 3.484375 -0.3125 L 3.25 -0.3125 C 2.484375 -0.3125 2.46875 -0.421875 2.46875 -0.78125 L 2.46875 -3.390625 L 5.640625 -3.390625 L 5.640625 -0.78125 C 5.640625 -0.421875 5.625 -0.3125 4.859375 -0.3125 L 4.609375 -0.3125 L 4.609375 0 C 4.96875 -0.03125 5.703125 -0.03125 6.078125 -0.03125 C 6.453125 -0.03125 7.203125 -0.03125 7.5625 0 L 7.5625 -0.3125 L 7.3125 -0.3125 C 6.546875 -0.3125 6.53125 -0.421875 6.53125 -0.78125 L 6.53125 -6.03125 C 6.53125 -6.390625 6.546875 -6.5 7.3125 -6.5 L 7.5625 -6.5 L 7.5625 -6.8125 C 7.203125 -6.78125 6.46875 -6.78125 6.09375 -6.78125 C 5.71875 -6.78125 4.96875 -6.78125 4.609375 -6.8125 L 4.609375 -6.5 L 4.859375 -6.5 C 5.625 -6.5 5.640625 -6.390625 5.640625 -6.03125 Z M 5.640625 -3.703125 "/>
</symbol>
<symbol overflow="visible" id="embed-5762578709740549220-glyph0-2">
<path style="stroke:none;" d="M 4.0625 -6.296875 C 4.109375 -6.34375 4.234375 -6.4375 4.234375 -6.59375 C 4.234375 -6.765625 4.0625 -6.953125 3.875 -6.953125 C 3.734375 -6.953125 3.65625 -6.875 3.515625 -6.703125 L 2.296875 -5.265625 L 2.46875 -5.078125 Z M 4.0625 -6.296875 "/>
</symbol>
<symbol overflow="visible" id="embed-5762578709740549220-glyph0-3">
<path style="stroke:none;" d="M 4.859375 -5.09375 L 0.421875 -5.09375 L 0.421875 -4.84375 C 1.09375 -4.84375 1.140625 -4.78125 1.140625 -4.375 L 1.140625 -0.71875 C 1.140625 -0.3125 1.09375 -0.25 0.421875 -0.25 L 0.421875 0 L 4.984375 0 L 5.28125 -1.9375 L 5.03125 -1.9375 C 4.859375 -0.734375 4.609375 -0.25 3.34375 -0.25 L 2.265625 -0.25 C 1.90625 -0.25 1.859375 -0.28125 1.859375 -0.671875 L 1.859375 -2.515625 L 2.5625 -2.515625 C 3.296875 -2.515625 3.421875 -2.328125 3.421875 -1.65625 L 3.671875 -1.65625 L 3.671875 -3.640625 L 3.421875 -3.640625 C 3.421875 -2.96875 3.296875 -2.765625 2.5625 -2.765625 L 1.859375 -2.765625 L 1.859375 -4.421875 C 1.859375 -4.8125 1.90625 -4.84375 2.265625 -4.84375 L 3.28125 -4.84375 C 4.4375 -4.84375 4.6875 -4.5 4.8125 -3.40625 L 5.046875 -3.40625 Z M 4.859375 -5.09375 "/>
</symbol>
<symbol overflow="visible" id="embed-5762578709740549220-glyph0-4">
<path style="stroke:none;" d="M 4.71875 -1.9375 L 4.46875 -1.9375 C 4.390625 -1.140625 4.28125 -0.25 2.890625 -0.25 L 2.265625 -0.25 C 1.90625 -0.25 1.859375 -0.28125 1.859375 -0.671875 L 1.859375 -4.375 C 1.859375 -4.875 2.015625 -4.875 2.765625 -4.875 L 2.765625 -5.125 C 2.46875 -5.109375 1.828125 -5.09375 1.53125 -5.09375 C 1.28125 -5.09375 0.78125 -5.109375 0.421875 -5.125 L 0.421875 -4.875 C 1.09375 -4.875 1.140625 -4.8125 1.140625 -4.40625 L 1.140625 -0.71875 C 1.140625 -0.3125 1.09375 -0.25 0.421875 -0.25 L 0.421875 0 L 4.53125 0 Z M 4.71875 -1.9375 "/>
</symbol>
<symbol overflow="visible" id="embed-5762578709740549220-glyph0-5">
<path style="stroke:none;" d="M 5.828125 -2.546875 C 5.828125 -4.03125 4.640625 -5.265625 3.171875 -5.265625 C 1.6875 -5.265625 0.515625 -4.03125 0.515625 -2.546875 C 0.515625 -1.03125 1.71875 0.140625 3.171875 0.140625 C 4.625 0.140625 5.828125 -1.03125 5.828125 -2.546875 Z M 3.171875 -0.125 C 2.46875 -0.125 1.359375 -0.6875 1.359375 -2.65625 C 1.359375 -4.53125 2.5 -5.015625 3.171875 -5.015625 C 3.84375 -5.015625 4.96875 -4.515625 4.96875 -2.65625 C 4.96875 -0.6875 3.875 -0.125 3.171875 -0.125 Z M 3.171875 -0.125 "/>
</symbol>
<symbol overflow="visible" id="embed-5762578709740549220-glyph0-6">
<path style="stroke:none;" d="M 2.234375 -6.171875 C 2.234375 -6.484375 1.984375 -6.671875 1.734375 -6.671875 C 1.453125 -6.671875 1.234375 -6.4375 1.234375 -6.171875 C 1.234375 -5.90625 1.453125 -5.671875 1.734375 -5.671875 C 1.984375 -5.671875 2.234375 -5.859375 2.234375 -6.171875 Z M 4.265625 -6.171875 C 4.265625 -6.4375 4.046875 -6.671875 3.765625 -6.671875 C 3.515625 -6.671875 3.265625 -6.484375 3.265625 -6.171875 C 3.265625 -5.859375 3.515625 -5.671875 3.765625 -5.671875 C 4.046875 -5.671875 4.265625 -5.90625 4.265625 -6.171875 Z M 4.265625 -6.171875 "/>
</symbol>
<symbol overflow="visible" id="embed-5762578709740549220-glyph0-7">
<path style="stroke:none;" d="M 1.859375 -4.390625 C 1.859375 -4.828125 1.90625 -4.875 2.625 -4.875 L 2.625 -5.125 C 2.28125 -5.109375 1.765625 -5.09375 1.5 -5.09375 C 1.25 -5.09375 0.734375 -5.109375 0.390625 -5.125 L 0.390625 -4.875 C 1.09375 -4.875 1.140625 -4.828125 1.140625 -4.390625 L 1.140625 -0.734375 C 1.140625 -0.296875 1.09375 -0.25 0.390625 -0.25 L 0.390625 0 C 0.734375 -0.015625 1.25 -0.03125 1.5 -0.03125 C 1.765625 -0.03125 2.28125 -0.015625 2.625 0 L 2.625 -0.25 C 1.90625 -0.25 1.859375 -0.296875 1.859375 -0.734375 Z M 1.859375 -4.390625 "/>
</symbol>
<symbol overflow="visible" id="embed-5762578709740549220-glyph0-8">
<path style="stroke:none;" d="M 3.828125 -5.03125 C 3.828125 -5.1875 3.828125 -5.265625 3.734375 -5.265625 C 3.671875 -5.265625 3.65625 -5.25 3.515625 -5.03125 C 3.453125 -4.984375 3.359375 -4.828125 3.3125 -4.78125 C 2.9375 -5.140625 2.484375 -5.265625 2.078125 -5.265625 C 1.171875 -5.265625 0.515625 -4.578125 0.515625 -3.8125 C 0.515625 -3.25 0.828125 -2.921875 0.953125 -2.796875 C 1.25 -2.5 1.453125 -2.46875 2.359375 -2.25 C 2.90625 -2.125 3 -2.109375 3.234375 -1.890625 C 3.28125 -1.859375 3.546875 -1.578125 3.546875 -1.140625 C 3.546875 -0.640625 3.15625 -0.109375 2.46875 -0.109375 C 2.21875 -0.109375 1.671875 -0.15625 1.25 -0.5 C 0.796875 -0.84375 0.765625 -1.328125 0.75 -1.609375 C 0.75 -1.6875 0.671875 -1.6875 0.640625 -1.6875 C 0.515625 -1.6875 0.515625 -1.625 0.515625 -1.453125 L 0.515625 -0.09375 C 0.515625 0.0625 0.515625 0.140625 0.609375 0.140625 C 0.671875 0.140625 0.671875 0.125 0.828125 -0.09375 C 0.875 -0.140625 0.984375 -0.296875 1.015625 -0.34375 C 1.3125 -0.09375 1.828125 0.140625 2.46875 0.140625 C 3.4375 0.140625 4.0625 -0.625 4.0625 -1.421875 C 4.0625 -2.046875 3.671875 -2.4375 3.671875 -2.453125 C 3.296875 -2.828125 3.140625 -2.859375 2.296875 -3.0625 C 2.078125 -3.109375 1.734375 -3.1875 1.671875 -3.203125 C 1.171875 -3.40625 1.015625 -3.796875 1.015625 -4.09375 C 1.015625 -4.5625 1.421875 -5.046875 2.078125 -5.046875 C 3.34375 -5.046875 3.53125 -3.875 3.5625 -3.5625 C 3.59375 -3.484375 3.59375 -3.421875 3.703125 -3.421875 C 3.828125 -3.421875 3.828125 -3.484375 3.828125 -3.671875 Z M 3.828125 -5.03125 "/>
</symbol>
<symbol overflow="visible" id="embed-5762578709740549220-glyph0-9">
<path style="stroke:none;" d="M 3.28125 -5.078125 C 3.21875 -5.234375 3.171875 -5.296875 3.0625 -5.296875 C 2.921875 -5.296875 2.90625 -5.234375 2.84375 -5.109375 L 1.25 -0.984375 C 1.140625 -0.71875 0.96875 -0.265625 0.34375 -0.25 L 0.34375 0 C 0.5625 -0.015625 0.84375 -0.03125 1.0625 -0.03125 C 1.234375 -0.03125 1.6875 -0.015625 1.890625 0 L 1.890625 -0.25 C 1.46875 -0.265625 1.453125 -0.609375 1.453125 -0.703125 C 1.453125 -0.78125 1.453125 -0.796875 1.78125 -1.6875 L 3.84375 -1.6875 L 4.0625 -1.125 C 4.140625 -0.921875 4.28125 -0.59375 4.28125 -0.53125 C 4.28125 -0.25 3.921875 -0.25 3.75 -0.25 L 3.75 0 C 4.015625 -0.015625 4.609375 -0.03125 4.8125 -0.03125 C 5.140625 -0.03125 5.53125 -0.015625 5.765625 0 L 5.765625 -0.25 C 5.21875 -0.25 5.125 -0.296875 5 -0.640625 Z M 3.75 -1.9375 L 1.890625 -1.9375 L 2.828125 -4.34375 Z M 3.75 -1.9375 "/>
</symbol>
<symbol overflow="visible" id="embed-5762578709740549220-glyph0-10">
<path style="stroke:none;" d="M 3.21875 -2.328125 C 4.21875 -2.328125 5.046875 -2.953125 5.046875 -3.71875 C 5.046875 -4.4375 4.296875 -5.125 3.15625 -5.125 L 0.453125 -5.125 L 0.453125 -4.875 C 1.109375 -4.875 1.171875 -4.8125 1.171875 -4.40625 L 1.171875 -0.71875 C 1.171875 -0.3125 1.109375 -0.25 0.453125 -0.25 L 0.453125 0 C 0.734375 -0.015625 1.3125 -0.03125 1.53125 -0.03125 C 1.75 -0.03125 2.296875 -0.015625 2.609375 0 L 2.609375 -0.25 C 1.9375 -0.25 1.890625 -0.3125 1.890625 -0.71875 L 1.890625 -2.328125 Z M 1.859375 -4.453125 C 1.859375 -4.84375 1.90625 -4.875 2.25 -4.875 L 2.9375 -4.875 C 4.203125 -4.875 4.203125 -4.109375 4.203125 -3.71875 C 4.203125 -3.328125 4.203125 -2.5625 2.9375 -2.5625 L 1.859375 -2.5625 Z M 1.859375 -4.453125 "/>
</symbol>
<symbol overflow="visible" id="embed-5762578709740549220-glyph0-11">
<path style="stroke:none;" d="M 1.859375 -4.40625 C 1.859375 -4.8125 1.90625 -4.875 2.578125 -4.875 L 2.578125 -5.125 C 2.296875 -5.109375 1.71875 -5.09375 1.5 -5.09375 C 1.28125 -5.09375 0.734375 -5.109375 0.421875 -5.125 L 0.421875 -4.875 C 1.109375 -4.875 1.140625 -4.8125 1.140625 -4.390625 L 1.140625 -2.21875 C 1.140625 -1.96875 1.140625 -1.609375 1.171875 -1.46875 C 1.25 -0.671875 2.046875 0.140625 3.15625 0.140625 C 4.3125 0.140625 4.953125 -0.875 4.96875 -1.609375 L 4.96875 -4.25 C 4.96875 -4.65625 5.234375 -4.875 5.6875 -4.875 L 5.6875 -5.125 C 5.4375 -5.109375 4.90625 -5.09375 4.84375 -5.09375 C 4.5625 -5.09375 4.28125 -5.109375 4 -5.125 L 4 -4.875 C 4.71875 -4.875 4.71875 -4.34375 4.71875 -4.109375 L 4.71875 -1.78125 C 4.71875 -0.625 3.859375 -0.109375 3.1875 -0.109375 C 2.875 -0.109375 1.859375 -0.234375 1.859375 -1.71875 Z M 1.859375 -4.40625 "/>
</symbol>
</g>
</g>
<g id="d2">
<g>
<symbol overflow="visible" id="embed-5218297982672368617-glyph0-0">
<path style="stroke:none;" d=""/>
</symbol>
<symbol overflow="visible" id="embed-5218297982672368617-glyph0-1">
<path style="stroke:none;" d="M 4.953125 -3.5625 C 5.890625 -3.734375 6.671875 -4.359375 6.671875 -5.125 C 6.671875 -6.015625 5.6875 -6.8125 4.34375 -6.8125 L 0.578125 -6.8125 L 0.578125 -6.5 L 0.8125 -6.5 C 1.578125 -6.5 1.609375 -6.390625 1.609375 -6.03125 L 1.609375 -0.78125 C 1.609375 -0.421875 1.578125 -0.3125 0.8125 -0.3125 L 0.578125 -0.3125 L 0.578125 0 L 4.625 0 C 6 0 6.953125 -0.890625 6.953125 -1.828125 C 6.953125 -2.65625 6.15625 -3.421875 4.953125 -3.5625 Z M 2.4375 -6.09375 C 2.4375 -6.4375 2.453125 -6.5 2.921875 -6.5 L 4.28125 -6.5 C 5.296875 -6.5 5.703125 -5.6875 5.703125 -5.125 C 5.703125 -4.421875 5.109375 -3.65625 3.984375 -3.65625 L 2.4375 -3.65625 Z M 4.4375 -3.421875 C 5.46875 -3.421875 5.96875 -2.546875 5.96875 -1.828125 C 5.96875 -1.09375 5.359375 -0.3125 4.296875 -0.3125 L 2.921875 -0.3125 C 2.453125 -0.3125 2.4375 -0.375 2.4375 -0.703125 L 2.4375 -3.421875 Z M 4.4375 -3.421875 "/>
</symbol>
<symbol overflow="visible" id="embed-5218297982672368617-glyph0-2">
<path style="stroke:none;" d="M 6.390625 -6.78125 L 0.546875 -6.78125 L 0.546875 -6.46875 L 0.78125 -6.46875 C 1.5625 -6.46875 1.578125 -6.359375 1.578125 -6 L 1.578125 -0.78125 C 1.578125 -0.421875 1.5625 -0.3125 0.78125 -0.3125 L 0.546875 -0.3125 L 0.546875 0 L 6.546875 0 L 6.953125 -2.578125 L 6.703125 -2.578125 C 6.453125 -1.046875 6.21875 -0.3125 4.453125 -0.3125 L 2.953125 -0.3125 C 2.484375 -0.3125 2.46875 -0.375 2.46875 -0.703125 L 2.46875 -3.375 L 3.4375 -3.375 C 4.421875 -3.375 4.5625 -3.078125 4.5625 -2.203125 L 4.8125 -2.203125 L 4.8125 -4.84375 L 4.5625 -4.84375 C 4.5625 -3.984375 4.421875 -3.671875 3.4375 -3.671875 L 2.46875 -3.671875 L 2.46875 -6.078125 C 2.46875 -6.40625 2.484375 -6.46875 2.953125 -6.46875 L 4.375 -6.46875 C 5.9375 -6.46875 6.265625 -5.96875 6.421875 -4.53125 L 6.671875 -4.53125 Z M 6.390625 -6.78125 "/>
</symbol>
<symbol overflow="visible" id="embed-5218297982672368617-glyph0-3">
<path style="stroke:none;" d="M 6.21875 -2.578125 L 5.96875 -2.578125 C 5.859375 -1.578125 5.71875 -0.3125 3.890625 -0.3125 L 2.953125 -0.3125 C 2.484375 -0.3125 2.46875 -0.375 2.46875 -0.703125 L 2.46875 -6.015625 C 2.46875 -6.359375 2.46875 -6.5 3.40625 -6.5 L 3.734375 -6.5 L 3.734375 -6.8125 C 3.375 -6.78125 2.46875 -6.78125 2.0625 -6.78125 C 1.671875 -6.78125 0.890625 -6.78125 0.546875 -6.8125 L 0.546875 -6.5 L 0.78125 -6.5 C 1.5625 -6.5 1.578125 -6.390625 1.578125 -6.03125 L 1.578125 -0.78125 C 1.578125 -0.421875 1.5625 -0.3125 0.78125 -0.3125 L 0.546875 -0.3125 L 0.546875 0 L 5.9375 0 Z M 6.21875 -2.578125 "/>
</symbol>
<symbol overflow="visible" id="embed-5218297982672368617-glyph0-4">
<path style="stroke:none;" d="M 7.203125 -4.96875 C 7.28125 -5 7.390625 -5.046875 7.390625 -5.171875 C 7.390625 -5.296875 7.3125 -5.375 7.1875 -5.390625 L 1.203125 -2.71875 C 1.109375 -2.65625 1 -2.625 1 -2.5 C 1 -2.390625 1.0625 -2.328125 1.203125 -2.265625 L 7.03125 0.34375 C 7.140625 0.390625 7.1875 0.390625 7.203125 0.390625 C 7.28125 0.390625 7.390625 0.328125 7.390625 0.1875 C 7.390625 0.0625 7.28125 0.015625 7.203125 -0.015625 L 1.6875 -2.5 Z M 7.203125 -4.96875 "/>
</symbol>
<symbol overflow="visible" id="embed-5218297982672368617-glyph0-5">
<path style="stroke:none;" d="M 3.203125 -3.515625 C 4.28125 -3.890625 4.640625 -4.671875 4.640625 -5.265625 C 4.640625 -6.078125 3.734375 -6.640625 2.71875 -6.640625 C 1.6875 -6.640625 0.875 -6.078125 0.875 -5.28125 C 0.875 -4.953125 1.09375 -4.765625 1.375 -4.765625 C 1.6875 -4.765625 1.890625 -4.984375 1.890625 -5.28125 C 1.890625 -5.765625 1.421875 -5.765625 1.28125 -5.765625 C 1.5625 -6.21875 2.21875 -6.390625 2.6875 -6.390625 C 3.171875 -6.390625 3.71875 -6.125 3.71875 -5.28125 C 3.71875 -5.171875 3.71875 -4.5 3.296875 -4 C 3 -3.65625 2.75 -3.625 2.125 -3.59375 C 1.9375 -3.578125 1.890625 -3.578125 1.890625 -3.46875 C 1.890625 -3.359375 1.953125 -3.359375 2.125 -3.359375 L 2.625 -3.359375 C 3.4375 -3.359375 3.890625 -2.734375 3.890625 -1.703125 C 3.890625 -0.40625 3.203125 -0.0625 2.671875 -0.0625 C 2.390625 -0.0625 1.453125 -0.140625 1.046875 -0.8125 C 1.421875 -0.765625 1.6875 -1.015625 1.6875 -1.359375 C 1.6875 -1.71875 1.421875 -1.921875 1.140625 -1.921875 C 0.890625 -1.921875 0.578125 -1.78125 0.578125 -1.34375 C 0.578125 -0.421875 1.5625 0.21875 2.703125 0.21875 C 4 0.21875 4.921875 -0.703125 4.921875 -1.703125 C 4.921875 -2.515625 4.28125 -3.296875 3.203125 -3.515625 Z M 3.203125 -3.515625 "/>
</symbol>
</g>
</g>
<g id="d3">
<g>
<symbol overflow="visible" id="embed--2843371384203416058-glyph0-0">
<path style="stroke:none;" d=""/>
</symbol>
<symbol overflow="visible" id="embed--2843371384203416058-glyph0-1">
<path style="stroke:none;" d="M 1.78125 -1.140625 C 1.390625 -0.484375 1 -0.34375 0.5625 -0.3125 C 0.4375 -0.296875 0.34375 -0.296875 0.34375 -0.109375 C 0.34375 -0.046875 0.40625 0 0.484375 0 C 0.75 0 1.0625 -0.03125 1.328125 -0.03125 C 1.671875 -0.03125 2.015625 0 2.328125 0 C 2.390625 0 2.515625 0 2.515625 -0.1875 C 2.515625 -0.296875 2.4375 -0.3125 2.359375 -0.3125 C 2.140625 -0.328125 1.890625 -0.40625 1.890625 -0.65625 C 1.890625 -0.78125 1.953125 -0.890625 2.03125 -1.03125 L 2.796875 -2.296875 L 5.296875 -2.296875 C 5.3125 -2.09375 5.453125 -0.734375 5.453125 -0.640625 C 5.453125 -0.34375 4.9375 -0.3125 4.734375 -0.3125 C 4.59375 -0.3125 4.5 -0.3125 4.5 -0.109375 C 4.5 0 4.609375 0 4.640625 0 C 5.046875 0 5.46875 -0.03125 5.875 -0.03125 C 6.125 -0.03125 6.765625 0 7.015625 0 C 7.0625 0 7.1875 0 7.1875 -0.203125 C 7.1875 -0.3125 7.09375 -0.3125 6.953125 -0.3125 C 6.34375 -0.3125 6.34375 -0.375 6.3125 -0.671875 L 5.703125 -6.890625 C 5.6875 -7.09375 5.6875 -7.140625 5.515625 -7.140625 C 5.359375 -7.140625 5.3125 -7.0625 5.25 -6.96875 Z M 2.984375 -2.609375 L 4.9375 -5.90625 L 5.265625 -2.609375 Z M 2.984375 -2.609375 "/>
</symbol>
<symbol overflow="visible" id="embed--2843371384203416058-glyph0-2">
<path style="stroke:none;" d="M 7.609375 -6.046875 C 7.703125 -6.40625 7.71875 -6.5 8.4375 -6.5 C 8.703125 -6.5 8.78125 -6.5 8.78125 -6.703125 C 8.78125 -6.8125 8.671875 -6.8125 8.640625 -6.8125 C 8.359375 -6.8125 7.640625 -6.78125 7.359375 -6.78125 C 7.078125 -6.78125 6.375 -6.8125 6.078125 -6.8125 C 6 -6.8125 5.890625 -6.8125 5.890625 -6.609375 C 5.890625 -6.5 5.984375 -6.5 6.171875 -6.5 C 6.1875 -6.5 6.375 -6.5 6.546875 -6.484375 C 6.734375 -6.453125 6.8125 -6.453125 6.8125 -6.3125 C 6.8125 -6.28125 6.8125 -6.265625 6.78125 -6.125 L 6.1875 -3.703125 L 3.140625 -3.703125 L 3.734375 -6.046875 C 3.8125 -6.40625 3.84375 -6.5 4.5625 -6.5 C 4.828125 -6.5 4.90625 -6.5 4.90625 -6.703125 C 4.90625 -6.8125 4.796875 -6.8125 4.765625 -6.8125 C 4.484375 -6.8125 3.765625 -6.78125 3.484375 -6.78125 C 3.203125 -6.78125 2.5 -6.8125 2.203125 -6.8125 C 2.125 -6.8125 2.015625 -6.8125 2.015625 -6.609375 C 2.015625 -6.5 2.109375 -6.5 2.296875 -6.5 C 2.3125 -6.5 2.5 -6.5 2.671875 -6.484375 C 2.84375 -6.453125 2.9375 -6.453125 2.9375 -6.3125 C 2.9375 -6.28125 2.9375 -6.25 2.90625 -6.125 L 1.5625 -0.78125 C 1.46875 -0.390625 1.453125 -0.3125 0.65625 -0.3125 C 0.484375 -0.3125 0.390625 -0.3125 0.390625 -0.109375 C 0.390625 0 0.515625 0 0.53125 0 C 0.8125 0 1.515625 -0.03125 1.796875 -0.03125 C 2 -0.03125 2.21875 -0.015625 2.4375 -0.015625 C 2.65625 -0.015625 2.875 0 3.078125 0 C 3.15625 0 3.28125 0 3.28125 -0.203125 C 3.28125 -0.3125 3.1875 -0.3125 3 -0.3125 C 2.625 -0.3125 2.359375 -0.3125 2.359375 -0.484375 C 2.359375 -0.546875 2.375 -0.59375 2.375 -0.65625 L 3.0625 -3.390625 L 6.09375 -3.390625 C 5.6875 -1.734375 5.453125 -0.78125 5.40625 -0.640625 C 5.3125 -0.3125 5.125 -0.3125 4.5 -0.3125 C 4.359375 -0.3125 4.265625 -0.3125 4.265625 -0.109375 C 4.265625 0 4.390625 0 4.40625 0 C 4.6875 0 5.390625 -0.03125 5.671875 -0.03125 C 5.875 -0.03125 6.09375 -0.015625 6.3125 -0.015625 C 6.53125 -0.015625 6.75 0 6.953125 0 C 7.03125 0 7.15625 0 7.15625 -0.203125 C 7.15625 -0.3125 7.0625 -0.3125 6.875 -0.3125 C 6.515625 -0.3125 6.234375 -0.3125 6.234375 -0.484375 C 6.234375 -0.546875 6.25 -0.59375 6.265625 -0.65625 Z M 7.609375 -6.046875 "/>
</symbol>
<symbol overflow="visible" id="embed--2843371384203416058-glyph0-3">
<path style="stroke:none;" d="M 6.734375 -4.96875 C 6.84375 -5.03125 6.921875 -5.078125 6.921875 -5.1875 C 6.921875 -5.296875 6.828125 -5.390625 6.71875 -5.390625 C 6.6875 -5.390625 6.671875 -5.390625 6.546875 -5.3125 L 1.015625 -2.71875 C 0.90625 -2.65625 0.828125 -2.609375 0.828125 -2.5 C 0.828125 -2.375 0.90625 -2.328125 1.015625 -2.265625 L 6.546875 0.328125 C 6.671875 0.40625 6.6875 0.40625 6.71875 0.40625 C 6.828125 0.40625 6.921875 0.3125 6.921875 0.203125 C 6.921875 0.09375 6.84375 0.046875 6.734375 -0.015625 L 1.5 -2.5 Z M 6.734375 -4.96875 "/>
</symbol>
<symbol overflow="visible" id="embed--2843371384203416058-glyph1-0">
<path style="stroke:none;" d=""/>
</symbol>
<symbol overflow="visible" id="embed--2843371384203416058-glyph1-1">
<path style="stroke:none;" d="M 4.078125 -2.296875 L 6.859375 -2.296875 C 7 -2.296875 7.1875 -2.296875 7.1875 -2.5 C 7.1875 -2.6875 7 -2.6875 6.859375 -2.6875 L 4.078125 -2.6875 L 4.078125 -5.484375 C 4.078125 -5.625 4.078125 -5.8125 3.875 -5.8125 C 3.671875 -5.8125 3.671875 -5.625 3.671875 -5.484375 L 3.671875 -2.6875 L 0.890625 -2.6875 C 0.75 -2.6875 0.5625 -2.6875 0.5625 -2.5 C 0.5625 -2.296875 0.75 -2.296875 0.890625 -2.296875 L 3.671875 -2.296875 L 3.671875 0.5 C 3.671875 0.640625 3.671875 0.828125 3.875 0.828125 C 4.078125 0.828125 4.078125 0.640625 4.078125 0.5 Z M 4.078125 -2.296875 "/>
</symbol>
<symbol overflow="visible" id="embed--2843371384203416058-glyph1-2">
<path style="stroke:none;" d="M 6.84375 -3.265625 C 7 -3.265625 7.1875 -3.265625 7.1875 -3.453125 C 7.1875 -3.65625 7 -3.65625 6.859375 -3.65625 L 0.890625 -3.65625 C 0.75 -3.65625 0.5625 -3.65625 0.5625 -3.453125 C 0.5625 -3.265625 0.75 -3.265625 0.890625 -3.265625 Z M 6.859375 -1.328125 C 7 -1.328125 7.1875 -1.328125 7.1875 -1.53125 C 7.1875 -1.71875 7 -1.71875 6.84375 -1.71875 L 0.890625 -1.71875 C 0.75 -1.71875 0.5625 -1.71875 0.5625 -1.53125 C 0.5625 -1.328125 0.75 -1.328125 0.890625 -1.328125 Z M 6.859375 -1.328125 "/>
</symbol>
<symbol overflow="visible" id="embed--2843371384203416058-glyph1-3">
<path style="stroke:none;" d="M 2.890625 -3.515625 C 3.703125 -3.78125 4.28125 -4.46875 4.28125 -5.265625 C 4.28125 -6.078125 3.40625 -6.640625 2.453125 -6.640625 C 1.453125 -6.640625 0.6875 -6.046875 0.6875 -5.28125 C 0.6875 -4.953125 0.90625 -4.765625 1.203125 -4.765625 C 1.5 -4.765625 1.703125 -4.984375 1.703125 -5.28125 C 1.703125 -5.765625 1.234375 -5.765625 1.09375 -5.765625 C 1.390625 -6.265625 2.046875 -6.390625 2.40625 -6.390625 C 2.828125 -6.390625 3.375 -6.171875 3.375 -5.28125 C 3.375 -5.15625 3.34375 -4.578125 3.09375 -4.140625 C 2.796875 -3.65625 2.453125 -3.625 2.203125 -3.625 C 2.125 -3.609375 1.890625 -3.59375 1.8125 -3.59375 C 1.734375 -3.578125 1.671875 -3.5625 1.671875 -3.46875 C 1.671875 -3.359375 1.734375 -3.359375 1.90625 -3.359375 L 2.34375 -3.359375 C 3.15625 -3.359375 3.53125 -2.6875 3.53125 -1.703125 C 3.53125 -0.34375 2.84375 -0.0625 2.40625 -0.0625 C 1.96875 -0.0625 1.21875 -0.234375 0.875 -0.8125 C 1.21875 -0.765625 1.53125 -0.984375 1.53125 -1.359375 C 1.53125 -1.71875 1.265625 -1.921875 0.984375 -1.921875 C 0.734375 -1.921875 0.421875 -1.78125 0.421875 -1.34375 C 0.421875 -0.4375 1.34375 0.21875 2.4375 0.21875 C 3.65625 0.21875 4.5625 -0.6875 4.5625 -1.703125 C 4.5625 -2.515625 3.921875 -3.296875 2.890625 -3.515625 Z M 2.890625 -3.515625 "/>
</symbol>
</g>
</g>
</defs>
<rect x="-1000.0" y="-1000.0" width="2000" height="2000" fill=" #f3eee9
" />
<path d="M-30.815136891747024,-63.60578776039569 A27.461454100854407,13.411324833057238,0,1,1,-31.815136891747024,-63.60578776039569 Z" fill="white" stroke="#551155" stroke-width="1.3" />
<g transform="translate(-30.815136891747024, -50.194462927338456) scale(1.3333333333333333) translate(-18.507, -4.414)">
<g id="embed--1764741883919145910-surface1">
<g style="fill:rgb(0%,0%,0%);fill-opacity:1;">
  <use xlink:href="#embed--1764741883919145910-glyph0-1" x="0.996" y="7.832"/>
  <use xlink:href="#embed--1764741883919145910-glyph0-2" x="9.657484" y="7.832"/>
  <use xlink:href="#embed--1764741883919145910-glyph0-3" x="19.204644" y="7.832"/>
  <use xlink:href="#embed--1764741883919145910-glyph0-4" x="24.933139" y="7.832"/>
  <use xlink:href="#embed--1764741883919145910-glyph0-5" x="31.298244" y="7.832"/>
</g>
</g>
</g>
<path d="M-39.28252961620054,-5.242564842926544 A56.70477872082544,22.681911488330176,0,1,1,-40.28252961620054,-5.242564842926544 Z" fill="white" stroke="#551155" stroke-width="1.3" />
<g transform="translate(-39.28252961620054, 17.43934664540363) scale(1.3333333333333333) translate(-40.163, -4.8705)">
<g id="embed-5762578709740549220-surface1">
<g style="fill:rgb(0%,0%,0%);fill-opacity:1;">
  <use xlink:href="#embed-5762578709740549220-glyph0-1" x="0.996" y="8.745"/>
</g>
<g style="fill:rgb(0%,0%,0%);fill-opacity:1;">
  <use xlink:href="#embed-5762578709740549220-glyph0-2" x="9.13" y="7.915"/>
</g>
<g style="fill:rgb(0%,0%,0%);fill-opacity:1;">
  <use xlink:href="#embed-5762578709740549220-glyph0-3" x="9.105" y="8.745"/>
  <use xlink:href="#embed-5762578709740549220-glyph0-4" x="14.662138" y="8.745"/>
  <use xlink:href="#embed-5762578709740549220-glyph0-5" x="19.775941" y="8.745"/>
</g>
<g style="fill:rgb(0%,0%,0%);fill-opacity:1;">
  <use xlink:href="#embed-5762578709740549220-glyph0-6" x="24.859" y="7.915"/>
</g>
<g style="fill:rgb(0%,0%,0%);fill-opacity:1;">
  <use xlink:href="#embed-5762578709740549220-glyph0-7" x="26.107" y="8.745"/>
  <use xlink:href="#embed-5762578709740549220-glyph0-8" x="29.117698" y="8.745"/>
  <use xlink:href="#embed-5762578709740549220-glyph0-3" x="33.678576" y="8.745"/>
</g>
<g style="fill:rgb(0%,0%,0%);fill-opacity:1;">
  <use xlink:href="#embed-5762578709740549220-glyph0-4" x="43.001577" y="8.745"/>
  <use xlink:href="#embed-5762578709740549220-glyph0-9" x="48.11538" y="8.745"/>
</g>
<g style="fill:rgb(0%,0%,0%);fill-opacity:1;">
  <use xlink:href="#embed-5762578709740549220-glyph0-10" x="57.991305" y="8.745"/>
  <use xlink:href="#embed-5762578709740549220-glyph0-4" x="63.548443" y="8.745"/>
  <use xlink:href="#embed-5762578709740549220-glyph0-11" x="68.662246" y="8.745"/>
  <use xlink:href="#embed-5762578709740549220-glyph0-8" x="74.772308" y="8.745"/>
</g>
</g>
</g>
<path d="M-38.94861465682065,76.12510609268563 A87.10028256109288,36.48554812829625,0,1,1,-39.94861465682065,76.12510609268563 Z" fill="white" stroke="#551155" stroke-width="1.3" />
<g transform="translate(-38.94861465682065, 112.61065422098187) scale(1.3333333333333333) translate(-60.2525, -10.5725)">
<g id="embed-5218297982672368617-surface1">
<g style="fill:rgb(0%,0%,0%);fill-opacity:1;">
  <use xlink:href="#embed-5218297982672368617-glyph0-1" x="0.996" y="7.804"/>
  <use xlink:href="#embed-5218297982672368617-glyph0-2" x="8.675172" y="7.804"/>
  <use xlink:href="#embed-5218297982672368617-glyph0-2" x="16.064433" y="7.804"/>
  <use xlink:href="#embed-5218297982672368617-glyph0-2" x="23.453693" y="7.804"/>
  <use xlink:href="#embed-5218297982672368617-glyph0-2" x="30.842953" y="7.804"/>
  <use xlink:href="#embed-5218297982672368617-glyph0-2" x="38.232214" y="7.804"/>
  <use xlink:href="#embed-5218297982672368617-glyph0-2" x="45.621474" y="7.804"/>
  <use xlink:href="#embed-5218297982672368617-glyph0-3" x="53.010735" y="7.804"/>
  <use xlink:href="#embed-5218297982672368617-glyph0-3" x="59.818179" y="7.804"/>
  <use xlink:href="#embed-5218297982672368617-glyph0-3" x="66.625624" y="7.804"/>
  <use xlink:href="#embed-5218297982672368617-glyph0-3" x="73.433068" y="7.804"/>
  <use xlink:href="#embed-5218297982672368617-glyph0-3" x="80.240513" y="7.804"/>
  <use xlink:href="#embed-5218297982672368617-glyph0-2" x="87.047957" y="7.804"/>
  <use xlink:href="#embed-5218297982672368617-glyph0-2" x="94.437218" y="7.804"/>
</g>
<g style="fill:rgb(0%,0%,0%);fill-opacity:1;">
  <use xlink:href="#embed-5218297982672368617-glyph0-4" x="105.592341" y="7.804"/>
  <use xlink:href="#embed-5218297982672368617-glyph0-5" x="114.004761" y="7.804"/>
</g>
<g style="fill:rgb(0%,0%,0%);fill-opacity:1;">
  <use xlink:href="#embed-5218297982672368617-glyph0-4" x="44.451" y="19.759"/>
  <use xlink:href="#embed-5218297982672368617-glyph0-5" x="52.863419" y="19.759"/>
</g>
<g style="fill:rgb(0%,0%,0%);fill-opacity:1;">
  <use xlink:href="#embed-5218297982672368617-glyph0-4" x="62.136608" y="19.759"/>
  <use xlink:href="#embed-5218297982672368617-glyph0-5" x="70.549027" y="19.759"/>
</g>
</g>
</g>
<path d="M65.22342904817343,-41.04971600651956 A40.9145783309568,16.855823339263036,0,1,1,64.22342904817343,-41.04971600651956 Z" fill="white" stroke="#551155" stroke-width="1.3" />
<g transform="translate(65.22342904817343, -24.193892667256527) scale(1.3333333333333333) translate(-28.3725, -4.8155)">
<g id="embed--2843371384203416058-surface1">
<g style="fill:rgb(0%,0%,0%);fill-opacity:1;">
  <use xlink:href="#embed--2843371384203416058-glyph0-1" x="0.996" y="7.805"/>
</g>
<g style="fill:rgb(0%,0%,0%);fill-opacity:1;">
  <use xlink:href="#embed--2843371384203416058-glyph1-1" x="10.682" y="7.805"/>
</g>
<g style="fill:rgb(0%,0%,0%);fill-opacity:1;">
  <use xlink:href="#embed--2843371384203416058-glyph0-2" x="20.645" y="7.805"/>
</g>
<g style="fill:rgb(0%,0%,0%);fill-opacity:1;">
  <use xlink:href="#embed--2843371384203416058-glyph1-2" x="32.503" y="7.805"/>
</g>
<g style="fill:rgb(0%,0%,0%);fill-opacity:1;">
  <use xlink:href="#embed--2843371384203416058-glyph0-3" x="40.252" y="7.805"/>
</g>
<g style="fill:rgb(0%,0%,0%);fill-opacity:1;">
  <use xlink:href="#embed--2843371384203416058-glyph1-3" x="50.768" y="7.805"/>
</g>
</g>
</g>
<path d="M-33.726326362962986,-35.55869213722001 C-34.59969241289489,-31.16791460485435,-35.915436937691524,-13.706042099121806,-36.69245833988256,-6.518644559244031" fill="none" stroke="black" stroke-width="1.3" stroke-linecap="round" />
<path d="M-32.77570512045014,-11.063866690016715 L-36.69245833988256,-6.518644559244031 L-39.62396153852091,-11.753746181598" fill="none" stroke="black" stroke-width="1.3" stroke-linecap="round" stroke-linejoin="round" />
<path d="M-2.0590373167398504,-49.91060458720847 C6.575042018794189,-49.825375523985116,23.361403148451107,-39.45594543536948,33.021870821698606,-35.93393320053565" fill="none" stroke="black" stroke-width="1.3" stroke-linecap="round" />
<path d="M29.77165118033491,-40.977351910388485 L33.021870821698606,-35.93393320053565 L27.170966888937194,-34.60467657760799" fill="none" stroke="black" stroke-width="1.3" stroke-linecap="round" stroke-linejoin="round" />
<path d="M-39.15734222503569,41.42120228054988 C-39.119785858596344,48.61578753189683,-39.09364719767255,63.48948022316329,-39.06017814853679,74.8251361834205" fill="none" stroke="black" stroke-width="1.3" stroke-linecap="round" />
<path d="M-35.632453300292646,69.90063596870534 L-39.06017814853679,74.8251361834205 L-42.51534371748583,69.91985016819682" fill="none" stroke="black" stroke-width="1.3" stroke-linecap="round" stroke-linejoin="round" />
<path d="M-34.86416290174945,-6.472889179257141 C-33.538268000696405,-13.648642936635003,-32.640646634986894,-31.09254844842759,-32.21937515331403,-35.5006825847249" fill="none" stroke="black" stroke-width="1.3" stroke-linecap="round" />
<path d="M-29.189028216756967,-30.32216953133793 L-32.21937515331403,-35.5006825847249 L-36.04914596265752,-30.88193215328778" fill="none" stroke="black" stroke-width="1.3" stroke-linecap="round" stroke-linejoin="round" />
<path d="M16.754466220206368,11.245783152637756 C33.56590778258906,9.387676215115377,37.182017873225206,-3.905135189730096,43.653112873936664,-8.587156228698401" fill="none" stroke="black" stroke-width="1.3" stroke-linecap="round" />
<path d="M42.31981427535734,-2.7371720537602835 L43.653112873936664,-8.587156228698401 L37.69991093525096,-7.839234657122353" fill="none" stroke="black" stroke-width="1.3" stroke-linecap="round" stroke-linejoin="round" />
</svg>